<svg id="SvgjsSvg1054" width="261" height="167" xmlns="http://www.w3.org/2000/svg" version="1.1" xmlns:xlink="http://www.w3.org/1999/xlink" xmlns:svgjs="http://svgjs.com/svgjs"><defs id="SvgjsDefs1055"></defs><g id="SvgjsG1056" transform="translate(48.068539915966426,36.546875)"><path id="SvgjsPath1057" d="M 18.783025210084027 73.63815789473682C -15.652521008403358 52.5986842105263 6.261008403361343 36.81907894736841 14.087268907563022 31.55921052631578C 10.956764705882351 5.25986842105263 50.08806722689074 0 65.7405882352941 10.51973684210526C 78.26260504201679 -5.25986842105263 117.39390756302518 0 117.39390756302518 15.77960526315789C 148.6989495798319 10.51973684210526 161.22096638655458 31.55921052631578 148.6989495798319 57.85855263157894C 159.65571428571425 78.89802631578945 148.6989495798319 105.1973684210526 112.69815126050418 94.67763157894734C 104.8718907563025 108.35328947368419 73.56684873949578 108.35328947368419 65.7405882352941 94.67763157894734C 50.08806722689074 105.1973684210526 18.783025210084027 99.93749999999997 18.783025210084027 73.63815789473682Z" stroke="rgba(50,50,50,1)" stroke-width="2" fill-opacity="1" fill="#64b5f6"></path><g id="SvgjsG1058"><text id="SvgjsText1059" font-family="微软雅黑" text-anchor="middle" font-size="13px" width="137px" fill="#323232" font-weight="400" align="middle" lineHeight="125%" anchor="middle" family="微软雅黑" size="13px" weight="400" font-style="" opacity="1" y="42.9736842105263" transform="rotate(0)"></text></g></g><g id="SvgjsG1060" transform="translate(25.001313025210095,25.00082236842104)"><path id="SvgjsPath1061" d="M 0 0L 210.6596638655462 0L 210.6596638655462 116.74342105263158L 0 116.74342105263158Z" stroke="none" fill="none"></path><g id="SvgjsG1062"><text id="SvgjsText1063" font-family="&quot;Comic Sans MS&quot;" text-anchor="middle" font-size="100px" width="211px" fill="#323232" font-weight="400" align="middle" lineHeight="125%" anchor="middle" family="&quot;Comic Sans MS&quot;" size="100px" weight="400" font-style="" opacity="1" y="-18.628289473684212" transform="rotate(0)"><tspan id="SvgjsTspan1064" dy="125" x="105.5"><tspan id="SvgjsTspan1065" style="text-decoration:;">SL</tspan></tspan></text></g></g></svg>